# xmcd
#
# Track frame offsets:
#	150
#	17431
#	41931
#	66651
#	84931
#	102443
#	122035
#	141402
#	156306
#	174668
#	193859
#	210865
#
# Disc length: 2998 seconds
#
# Revision: 1
# Processed by: cddbd v1.5.2PL0 Copyright (c) Steve Scherf et al.
# Submitted via: audiograbber 1.83.01
#
DISCID=ac0bb40c
DTITLE=Kathy Mattea - Pretty Bird
DYEAR=2018
DGENRE=Country
TTITLE0=Chocolate On My Tongue
TTITLE1=Ode To Billy Joe
TTITLE2=Mercy Now
TTITLE3=Little Glass Of Wine
TTITLE4=He Moves Through The Fair
TTITLE5=St. Teresa
TTITLE6=This Love Will Carry
TTITLE7=October Song
TTITLE8=Tell Me What You Ache For
TTITLE9=Holy Now
TTITLE10=I Can't Stand Up Alone
TTITLE11=Pretty Bird
EXTD=
EXTT0=
EXTT1=
EXTT2=
EXTT3=
EXTT4=
EXTT5=
EXTT6=
EXTT7=
EXTT8=
EXTT9=
EXTT10=
EXTT11=
PLAYORDER=
